<mxfile host="Electron" modified="2024-04-17T11:19:56.458Z" agent="Mozilla/5.0 (Windows NT 10.0; Win64; x64) AppleWebKit/537.36 (KHTML, like Gecko) draw.io/24.1.0 Chrome/120.0.6099.109 Electron/28.1.0 Safari/537.36" etag="F4aSF3QPHhSxrbeU5pOx" version="24.1.0" type="device">
  <diagram id="C5RBs43oDa-KdzZeNtuy" name="Page-1">
    <mxGraphModel dx="1018" dy="767" grid="1" gridSize="10" guides="1" tooltips="1" connect="1" arrows="1" fold="1" page="1" pageScale="1" pageWidth="827" pageHeight="1169" background="none" math="0" shadow="0">
      <root>
        <mxCell id="WIyWlLk6GJQsqaUBKTNV-0" />
        <mxCell id="WIyWlLk6GJQsqaUBKTNV-1" parent="WIyWlLk6GJQsqaUBKTNV-0" />
        <mxCell id="zkfFHV4jXpPFQw0GAbJ--0" value="&lt;&lt;HTML&gt;&gt;&#xa;File Location/Index.html" style="swimlane;fontStyle=2;align=center;verticalAlign=top;childLayout=stackLayout;horizontal=1;startSize=40;horizontalStack=0;resizeParent=1;resizeLast=0;collapsible=1;marginBottom=0;rounded=0;shadow=0;strokeWidth=1;" parent="WIyWlLk6GJQsqaUBKTNV-1" vertex="1">
          <mxGeometry x="414" y="130" width="210" height="600" as="geometry">
            <mxRectangle x="230" y="140" width="160" height="26" as="alternateBounds" />
          </mxGeometry>
        </mxCell>
        <mxCell id="zkfFHV4jXpPFQw0GAbJ--3" value="&lt;!DOCTYPE html&gt;&#xa;&lt;html&gt;&#xa;&lt;head&gt;&#xa;&lt;link href=&quot;style.css&quot; /&gt;&#xa;&lt;script src=&quot;script.js&quot; /&gt;&#xa;&lt;title&gt;A Tale of Tales&lt;/title&gt;&#xa;&lt;/head&gt;&#xa;&#xa;&lt;body&gt;&#xa;&lt;h1&gt;Welcome to A Tale of Tales&lt;/h1&gt;&#xa;&#xa;&lt;&lt;div class=&quot;wrapper&quot;&gt;&#xa;&lt;div class=&quot;box1&quot;&gt;&#xa;&lt;div class=&quot;box2&quot;&gt;&#xa;&lt;div class=&quot;box3&quot;&gt;&#xa;&#xa;&lt;div id=&quot;Giant&quot;&gt;&#xa;&lt;div id=&quot;Jormungand&quot;&gt;&#xa;&lt;div id=&quot;Sif&quot;&gt;&#xa;&lt;div id=&quot;Mjollnir&quot;&gt;&#xa;&lt;div id=&quot;Asgard&quot;&gt;&#xa;&lt;div id=&quot;Winter&quot;&gt;&#xa;&lt;div id=&quot;Loki&quot;&gt;&#xa;&lt;div id=&quot;Ragnarok&quot;&gt;&#xa;&#xa;&lt;div id=&quot;Minotaur&quot;&gt;&#xa;&lt;div id=&quot;Theseus&quot;&gt;&#xa;&lt;div id=&quot;Athens&quot;&gt;&#xa;&lt;div id=&quot;Daedalus&quot;&gt;&#xa;&lt;div id=&quot;Wings&quot;&gt;&#xa;&#xa;&lt;div id=&quot;Izanagi&quot;&gt;&#xa;&lt;div id=&quot;Izanami&quot;&gt;&#xa;&lt;div id=&quot;Amaterasu&quot;&gt;&#xa;&lt;div id=&quot;Momotaro&quot;&gt;&#xa;&lt;/body&gt;&#xa;&lt;/html&gt;" style="text;align=left;verticalAlign=top;spacingLeft=4;spacingRight=4;overflow=hidden;rotatable=0;points=[[0,0.5],[1,0.5]];portConstraint=eastwest;rounded=0;shadow=0;html=0;labelBackgroundColor=none;" parent="zkfFHV4jXpPFQw0GAbJ--0" vertex="1">
          <mxGeometry y="40" width="210" height="560" as="geometry" />
        </mxCell>
        <mxCell id="zkfFHV4jXpPFQw0GAbJ--17" value="&lt;&lt;CSS&gt;&gt;&#xa;File Location/style.css" style="swimlane;fontStyle=0;align=center;verticalAlign=top;childLayout=stackLayout;horizontal=1;startSize=40;horizontalStack=0;resizeParent=1;resizeLast=0;collapsible=1;marginBottom=0;rounded=0;shadow=0;strokeWidth=1;" parent="WIyWlLk6GJQsqaUBKTNV-1" vertex="1">
          <mxGeometry x="660" y="330" width="160" height="240" as="geometry">
            <mxRectangle x="550" y="140" width="160" height="26" as="alternateBounds" />
          </mxGeometry>
        </mxCell>
        <mxCell id="m-VuuP4XRYkNEHapWJlY-6" value="body&lt;div&gt;&lt;br&gt;&lt;/div&gt;&lt;div&gt;a&lt;/div&gt;&lt;div&gt;&lt;br&gt;&lt;/div&gt;&lt;div&gt;*&lt;/div&gt;&lt;div&gt;&lt;br&gt;&lt;/div&gt;&lt;div&gt;.wrapper &amp;gt; div&lt;/div&gt;&lt;div&gt;&lt;br&gt;&lt;/div&gt;&lt;div&gt;.wrapper&lt;/div&gt;&lt;div&gt;&lt;br&gt;&lt;/div&gt;&lt;div&gt;.hidden&lt;/div&gt;&lt;div&gt;&lt;br&gt;&lt;/div&gt;&lt;div&gt;.show&lt;/div&gt;" style="text;html=1;align=left;verticalAlign=middle;resizable=0;points=[];autosize=1;strokeColor=none;fillColor=none;" vertex="1" parent="zkfFHV4jXpPFQw0GAbJ--17">
          <mxGeometry y="40" width="160" height="200" as="geometry" />
        </mxCell>
        <mxCell id="zkfFHV4jXpPFQw0GAbJ--26" value="" style="endArrow=open;shadow=0;strokeWidth=1;rounded=0;curved=0;endFill=1;edgeStyle=elbowEdgeStyle;elbow=vertical;exitX=1.002;exitY=0.072;exitDx=0;exitDy=0;exitPerimeter=0;" parent="WIyWlLk6GJQsqaUBKTNV-1" source="zkfFHV4jXpPFQw0GAbJ--0" target="zkfFHV4jXpPFQw0GAbJ--17" edge="1">
          <mxGeometry x="0.5" y="41" relative="1" as="geometry">
            <mxPoint x="380" y="192" as="sourcePoint" />
            <mxPoint x="540" y="192" as="targetPoint" />
            <mxPoint x="-40" y="32" as="offset" />
          </mxGeometry>
        </mxCell>
        <mxCell id="m-VuuP4XRYkNEHapWJlY-0" value="&lt;span style=&quot;font-weight: normal;&quot;&gt;&amp;lt;&amp;lt;JavaScript&amp;gt;&amp;gt;&lt;/span&gt;&lt;div&gt;&lt;span style=&quot;font-weight: normal;&quot;&gt;File Location/script.js&lt;/span&gt;&lt;/div&gt;" style="swimlane;fontStyle=1;align=center;verticalAlign=top;childLayout=stackLayout;horizontal=1;startSize=40;horizontalStack=0;resizeParent=1;resizeParentMax=0;resizeLast=0;collapsible=1;marginBottom=0;whiteSpace=wrap;html=1;" vertex="1" parent="WIyWlLk6GJQsqaUBKTNV-1">
          <mxGeometry x="190" y="210" width="160" height="560" as="geometry" />
        </mxCell>
        <mxCell id="m-VuuP4XRYkNEHapWJlY-1" value="randSite1()&lt;div&gt;randSite2()&lt;/div&gt;&lt;div&gt;randSite3()&lt;/div&gt;&lt;div&gt;&lt;br&gt;&lt;/div&gt;&lt;div&gt;giantFunc()&lt;/div&gt;&lt;div&gt;JormunFunc()&lt;/div&gt;&lt;div&gt;sifFunc()&lt;/div&gt;&lt;div&gt;mjollFunc()&lt;/div&gt;&lt;div&gt;asgardFunc()&lt;/div&gt;&lt;div&gt;winterFunc()&lt;/div&gt;&lt;div&gt;lokiFunc()&lt;/div&gt;&lt;div&gt;ragnaFunc()&lt;/div&gt;&lt;div&gt;&lt;br&gt;&lt;/div&gt;&lt;div&gt;minoFunc()&lt;/div&gt;&lt;div&gt;theseFunc()&lt;/div&gt;&lt;div&gt;atheFunc()&lt;/div&gt;&lt;div&gt;daedaFunc()&lt;/div&gt;&lt;div&gt;wingFunc()&lt;/div&gt;&lt;div&gt;&lt;br&gt;&lt;/div&gt;&lt;div&gt;nagiFunc()&lt;/div&gt;&lt;div&gt;namiFunc()&lt;/div&gt;&lt;div&gt;amateFunc()&lt;/div&gt;&lt;div&gt;momoFunc()&lt;/div&gt;" style="text;strokeColor=none;fillColor=none;align=left;verticalAlign=top;spacingLeft=4;spacingRight=4;overflow=hidden;rotatable=0;points=[[0,0.5],[1,0.5]];portConstraint=eastwest;whiteSpace=wrap;html=1;" vertex="1" parent="m-VuuP4XRYkNEHapWJlY-0">
          <mxGeometry y="40" width="160" height="340" as="geometry" />
        </mxCell>
        <mxCell id="m-VuuP4XRYkNEHapWJlY-2" value="" style="line;strokeWidth=1;fillColor=none;align=left;verticalAlign=middle;spacingTop=-1;spacingLeft=3;spacingRight=3;rotatable=0;labelPosition=right;points=[];portConstraint=eastwest;strokeColor=inherit;" vertex="1" parent="m-VuuP4XRYkNEHapWJlY-0">
          <mxGeometry y="380" width="160" height="8" as="geometry" />
        </mxCell>
        <mxCell id="m-VuuP4XRYkNEHapWJlY-3" value="var arr1&lt;div&gt;var nam1&lt;/div&gt;&lt;div&gt;var rand1&lt;/div&gt;&lt;div&gt;&lt;br&gt;&lt;/div&gt;&lt;div&gt;var arr2&lt;/div&gt;&lt;div&gt;var nam2&lt;/div&gt;&lt;div&gt;var rand2&lt;/div&gt;&lt;div&gt;&lt;br&gt;&lt;/div&gt;&lt;div&gt;var arr3&lt;/div&gt;&lt;div&gt;var nam3&lt;/div&gt;&lt;div&gt;var rand3&lt;/div&gt;" style="text;strokeColor=none;fillColor=none;align=left;verticalAlign=top;spacingLeft=4;spacingRight=4;overflow=hidden;rotatable=0;points=[[0,0.5],[1,0.5]];portConstraint=eastwest;whiteSpace=wrap;html=1;" vertex="1" parent="m-VuuP4XRYkNEHapWJlY-0">
          <mxGeometry y="388" width="160" height="172" as="geometry" />
        </mxCell>
        <mxCell id="m-VuuP4XRYkNEHapWJlY-5" value="" style="endArrow=classic;html=1;rounded=0;exitX=0;exitY=0;exitDx=0;exitDy=0;" edge="1" parent="WIyWlLk6GJQsqaUBKTNV-1">
          <mxGeometry width="50" height="50" relative="1" as="geometry">
            <mxPoint x="414" y="140" as="sourcePoint" />
            <mxPoint x="270" y="210" as="targetPoint" />
            <Array as="points">
              <mxPoint x="270" y="140" />
            </Array>
          </mxGeometry>
        </mxCell>
      </root>
    </mxGraphModel>
  </diagram>
</mxfile>
